<svg width="1104" height="350" viewBox="0 0 1104 350" fill="none" xmlns="http://www.w3.org/2000/svg">
<mask id="path-1-outside-1_7_29" maskUnits="userSpaceOnUse" x="982" y="158" width="113" height="192" fill="black">
<rect fill="white" x="982" y="158" width="113" height="192"/>
<path d="M983.5 161H1001V192C1003.83 184.333 1009.08 177.083 1016.75 170.25C1024.42 163.417 1033.08 160 1042.75 160C1076.58 160 1093.5 179.833 1093.5 219.5C1093.5 264.5 1071.67 287 1028 287C1020.17 287 1011.17 285.167 1001 281.5V348.5H983.5V161ZM1042.5 162C1032.17 162 1022.83 166.5 1014.5 175.5C1006.17 184.333 1001.67 192.333 1001 199.5V279.25C1011.17 283.083 1020.08 285 1027.75 285C1059.92 285 1076 263.083 1076 219.25C1076 181.083 1064.83 162 1042.5 162Z"/>
</mask>
<path d="M983.5 161H1001V192C1003.83 184.333 1009.08 177.083 1016.75 170.25C1024.42 163.417 1033.08 160 1042.75 160C1076.58 160 1093.5 179.833 1093.5 219.5C1093.5 264.5 1071.67 287 1028 287C1020.17 287 1011.17 285.167 1001 281.5V348.5H983.5V161ZM1042.5 162C1032.17 162 1022.83 166.5 1014.5 175.5C1006.17 184.333 1001.67 192.333 1001 199.5V279.25C1011.17 283.083 1020.08 285 1027.75 285C1059.92 285 1076 263.083 1076 219.25C1076 181.083 1064.83 162 1042.5 162Z" fill="white"/>
<path d="M983.5 161V159.5H982V161H983.5ZM1001 161H1002.5V159.5H1001V161ZM1001 192H999.5L1002.41 192.52L1001 192ZM1016.75 170.25L1015.75 169.13L1016.75 170.25ZM1001 281.5L1001.51 280.089L999.5 279.364V281.5H1001ZM1001 348.5V350H1002.5V348.5H1001ZM983.5 348.5H982V350H983.5V348.5ZM1014.5 175.5L1015.59 176.529L1015.6 176.519L1014.5 175.5ZM1001 199.5L999.506 199.361L999.5 199.43V199.5H1001ZM1001 279.25H999.5V280.288L1000.47 280.654L1001 279.25ZM983.5 162.5H1001V159.5H983.5V162.5ZM999.5 161V192H1002.5V161H999.5ZM1002.41 192.52C1005.14 185.135 1010.22 178.081 1017.75 171.37L1015.75 169.13C1007.95 176.086 1002.53 183.531 999.593 191.48L1002.41 192.52ZM1017.75 171.37C1025.16 164.765 1033.48 161.5 1042.75 161.5V158.5C1032.69 158.5 1023.67 162.069 1015.75 169.13L1017.75 171.37ZM1042.75 161.5C1059.37 161.5 1071.58 166.359 1079.67 175.848C1087.8 185.383 1092 199.845 1092 219.5H1095C1095 199.489 1090.74 184.2 1081.95 173.902C1073.13 163.557 1059.97 158.5 1042.75 158.5V161.5ZM1092 219.5C1092 241.78 1086.59 258.212 1076.05 269.08C1065.51 279.94 1049.59 285.5 1028 285.5V288.5C1050.08 288.5 1066.91 282.81 1078.2 271.17C1089.49 259.538 1095 242.22 1095 219.5H1092ZM1028 285.5C1020.39 285.5 1011.57 283.717 1001.51 280.089L1000.49 282.911C1010.76 286.616 1019.94 288.5 1028 288.5V285.5ZM999.5 281.5V348.5H1002.5V281.5H999.5ZM1001 347H983.5V350H1001V347ZM985 348.5V161H982V348.5H985ZM1042.5 160.5C1031.67 160.5 1021.96 165.237 1013.4 174.481L1015.6 176.519C1023.71 167.763 1032.66 163.5 1042.5 163.5V160.5ZM1013.41 174.471C1004.99 183.395 1000.22 191.7 999.506 199.361L1002.49 199.639C1003.11 192.967 1007.34 185.271 1015.59 176.529L1013.41 174.471ZM999.5 199.5V279.25H1002.5V199.5H999.5ZM1000.47 280.654C1010.74 284.526 1019.84 286.5 1027.75 286.5V283.5C1020.32 283.5 1011.59 281.641 1001.53 277.846L1000.47 280.654ZM1027.75 286.5C1044.21 286.5 1056.77 280.867 1065.15 269.45C1073.46 258.12 1077.5 241.306 1077.5 219.25H1074.5C1074.5 241.027 1070.5 257.089 1062.73 267.675C1055.02 278.175 1043.45 283.5 1027.75 283.5V286.5ZM1077.5 219.25C1077.5 200.069 1074.7 185.438 1068.92 175.555C1063.06 165.548 1054.19 160.5 1042.5 160.5V163.5C1053.14 163.5 1061.02 167.994 1066.33 177.07C1071.71 186.27 1074.5 200.264 1074.5 219.25H1077.5Z" fill="white" mask="url(#path-1-outside-1_7_29)"/>
<mask id="path-3-outside-2_7_29" maskUnits="userSpaceOnUse" x="6" y="109" width="596" height="180" fill="black">
<rect fill="white" x="6" y="109" width="596" height="180"/>
<path d="M71.5 286H50.75V113.5H7.5V111H115V113.5H71.5V286ZM179.357 287C161.857 287 147.607 282 136.607 272C125.607 262 120.107 246.583 120.107 225.75C120.107 204.917 125.774 188.75 137.107 177.25C148.607 165.75 163.107 160 180.607 160C198.274 160 212.607 165 223.607 175C234.607 185 240.107 200.417 240.107 221.25C240.107 242.083 234.357 258.25 222.857 269.75C211.524 281.25 197.024 287 179.357 287ZM181.107 162C168.441 162 157.941 167.667 149.607 179C141.274 190.167 137.107 205.833 137.107 226C137.107 246 140.941 260.833 148.607 270.5C156.274 280.167 166.441 285 179.107 285C191.774 285 202.274 279.417 210.607 268.25C218.941 256.917 223.107 241.25 223.107 221.25C223.107 201.083 219.274 186.167 211.607 176.5C203.941 166.833 193.774 162 181.107 162ZM424.457 287C393.29 287 370.207 278.167 355.207 260.5C349.874 254.167 345.54 245.75 342.207 235.25C338.874 224.75 337.207 212 337.207 197C337.207 182 339.624 168.583 344.457 156.75C349.457 144.75 356.207 135.5 364.707 129C381.207 116.833 401.124 110.75 424.457 110.75C431.124 110.75 437.624 111.333 443.957 112.5C450.29 113.5 455.04 114.583 458.207 115.75L462.707 117.5L461.957 120C450.624 115.5 438.124 113.25 424.457 113.25C406.79 113.25 392.04 119 380.207 130.5C371.207 139 364.874 151.5 361.207 168C359.04 177.333 357.957 188.75 357.957 202.25C357.957 215.75 359.874 228.25 363.707 239.75C367.54 251.083 371.874 259.5 376.707 265C381.707 270.5 387.707 274.917 394.707 278.25C401.707 281.417 407.29 283.25 411.457 283.75C415.624 284.25 420.624 284.5 426.457 284.5C432.457 284.5 439.207 283.917 446.707 282.75C454.207 281.583 459.874 280.5 463.707 279.5L469.457 277.75L470.207 280.25C457.54 284.75 442.29 287 424.457 287ZM592.254 286C580.921 286 573.171 283.833 569.004 279.5C565.171 275.833 563.254 272.667 563.254 270V264.75C555.087 279.583 542.004 287 524.004 287C503.004 287 491.087 277.5 488.254 258.5C487.921 256.5 487.754 254.5 487.754 252.5C487.754 250.333 488.087 248 488.754 245.5C489.421 243 491.337 240.25 494.504 237.25C500.837 231.25 514.754 227.583 536.254 226.25C541.587 225.75 546.504 225.5 551.004 225.5C555.504 225.5 559.587 225.667 563.254 226V184.5C562.921 184.333 562.921 183.583 563.254 182.25C563.587 180.75 563.254 178.917 562.254 176.75C561.421 174.417 560.254 172.167 558.754 170C557.254 167.833 554.587 166 550.754 164.5C546.921 162.833 541.921 162 535.754 162C529.587 162 522.337 163.167 514.004 165.5C505.837 167.667 499.837 169.833 496.004 172L495.004 170.25C509.837 163.417 524.921 160 540.254 160C557.421 160 568.754 163.083 574.254 169.25C578.587 174.083 580.754 179.167 580.754 184.5V268.25C580.754 273.083 581.671 276.833 583.504 279.5C585.504 282 587.504 283.333 589.504 283.5L592.254 284H600.004V286H592.254ZM528.004 285C536.837 285 544.754 282 551.754 276C558.921 269.833 562.754 263.917 563.254 258.25V228C558.754 227.667 554.171 227.5 549.504 227.5C545.004 227.5 540.504 227.75 536.004 228.25C523.337 229.75 515.087 232.583 511.254 236.75C507.421 240.917 505.504 246.667 505.504 254C505.504 255.333 505.587 256.833 505.754 258.5C507.254 276.167 514.671 285 528.004 285Z"/>
</mask>
<path d="M71.5 286H50.75V113.5H7.5V111H115V113.5H71.5V286ZM179.357 287C161.857 287 147.607 282 136.607 272C125.607 262 120.107 246.583 120.107 225.75C120.107 204.917 125.774 188.75 137.107 177.25C148.607 165.75 163.107 160 180.607 160C198.274 160 212.607 165 223.607 175C234.607 185 240.107 200.417 240.107 221.25C240.107 242.083 234.357 258.25 222.857 269.75C211.524 281.25 197.024 287 179.357 287ZM181.107 162C168.441 162 157.941 167.667 149.607 179C141.274 190.167 137.107 205.833 137.107 226C137.107 246 140.941 260.833 148.607 270.5C156.274 280.167 166.441 285 179.107 285C191.774 285 202.274 279.417 210.607 268.25C218.941 256.917 223.107 241.25 223.107 221.25C223.107 201.083 219.274 186.167 211.607 176.5C203.941 166.833 193.774 162 181.107 162ZM424.457 287C393.29 287 370.207 278.167 355.207 260.5C349.874 254.167 345.54 245.75 342.207 235.25C338.874 224.75 337.207 212 337.207 197C337.207 182 339.624 168.583 344.457 156.75C349.457 144.75 356.207 135.5 364.707 129C381.207 116.833 401.124 110.75 424.457 110.75C431.124 110.75 437.624 111.333 443.957 112.5C450.29 113.5 455.04 114.583 458.207 115.75L462.707 117.5L461.957 120C450.624 115.5 438.124 113.25 424.457 113.25C406.79 113.25 392.04 119 380.207 130.5C371.207 139 364.874 151.5 361.207 168C359.04 177.333 357.957 188.75 357.957 202.25C357.957 215.75 359.874 228.25 363.707 239.75C367.54 251.083 371.874 259.5 376.707 265C381.707 270.5 387.707 274.917 394.707 278.25C401.707 281.417 407.29 283.25 411.457 283.75C415.624 284.25 420.624 284.5 426.457 284.5C432.457 284.5 439.207 283.917 446.707 282.75C454.207 281.583 459.874 280.5 463.707 279.5L469.457 277.75L470.207 280.25C457.54 284.75 442.29 287 424.457 287ZM592.254 286C580.921 286 573.171 283.833 569.004 279.5C565.171 275.833 563.254 272.667 563.254 270V264.75C555.087 279.583 542.004 287 524.004 287C503.004 287 491.087 277.5 488.254 258.5C487.921 256.5 487.754 254.5 487.754 252.5C487.754 250.333 488.087 248 488.754 245.5C489.421 243 491.337 240.25 494.504 237.25C500.837 231.25 514.754 227.583 536.254 226.25C541.587 225.75 546.504 225.5 551.004 225.5C555.504 225.5 559.587 225.667 563.254 226V184.5C562.921 184.333 562.921 183.583 563.254 182.25C563.587 180.75 563.254 178.917 562.254 176.75C561.421 174.417 560.254 172.167 558.754 170C557.254 167.833 554.587 166 550.754 164.5C546.921 162.833 541.921 162 535.754 162C529.587 162 522.337 163.167 514.004 165.5C505.837 167.667 499.837 169.833 496.004 172L495.004 170.25C509.837 163.417 524.921 160 540.254 160C557.421 160 568.754 163.083 574.254 169.25C578.587 174.083 580.754 179.167 580.754 184.5V268.25C580.754 273.083 581.671 276.833 583.504 279.5C585.504 282 587.504 283.333 589.504 283.5L592.254 284H600.004V286H592.254ZM528.004 285C536.837 285 544.754 282 551.754 276C558.921 269.833 562.754 263.917 563.254 258.25V228C558.754 227.667 554.171 227.5 549.504 227.5C545.004 227.5 540.504 227.75 536.004 228.25C523.337 229.75 515.087 232.583 511.254 236.75C507.421 240.917 505.504 246.667 505.504 254C505.504 255.333 505.587 256.833 505.754 258.5C507.254 276.167 514.671 285 528.004 285Z" fill="white"/>
<path d="M71.5 286V287.5H73V286H71.5ZM50.75 286H49.25V287.5H50.75V286ZM50.75 113.5H52.25V112H50.75V113.5ZM7.5 113.5H6V115H7.5V113.5ZM7.5 111V109.5H6V111H7.5ZM115 111H116.5V109.5H115V111ZM115 113.5V115H116.5V113.5H115ZM71.5 113.5V112H70V113.5H71.5ZM71.5 284.5H50.75V287.5H71.5V284.5ZM52.25 286V113.5H49.25V286H52.25ZM50.75 112H7.5V115H50.75V112ZM9 113.5V111H6V113.5H9ZM7.5 112.5H115V109.5H7.5V112.5ZM113.5 111V113.5H116.5V111H113.5ZM115 112H71.5V115H115V112ZM70 113.5V286H73V113.5H70ZM136.607 272L137.616 270.89L136.607 272ZM137.107 177.25L136.047 176.189L136.039 176.197L137.107 177.25ZM223.607 175L224.616 173.89L223.607 175ZM222.857 269.75L221.797 268.689L221.789 268.697L222.857 269.75ZM149.607 179L150.81 179.897L150.816 179.889L149.607 179ZM148.607 270.5L149.783 269.568L148.607 270.5ZM210.607 268.25L211.81 269.147L211.816 269.139L210.607 268.25ZM179.357 285.5C162.16 285.5 148.292 280.596 137.616 270.89L135.598 273.11C146.922 283.404 161.554 288.5 179.357 288.5V285.5ZM137.616 270.89C127.039 261.274 121.607 246.335 121.607 225.75H118.607C118.607 246.831 124.176 262.726 135.598 273.11L137.616 270.89ZM121.607 225.75C121.607 205.191 127.193 189.447 138.176 178.303L136.039 176.197C124.355 188.053 118.607 204.642 118.607 225.75H121.607ZM138.168 178.311C149.364 167.115 163.472 161.5 180.607 161.5V158.5C162.743 158.5 147.851 164.385 136.047 176.189L138.168 178.311ZM180.607 161.5C197.975 161.5 211.925 166.407 222.598 176.11L224.616 173.89C213.29 163.593 198.573 158.5 180.607 158.5V161.5ZM222.598 176.11C233.176 185.726 238.607 200.665 238.607 221.25H241.607C241.607 200.169 236.039 184.274 224.616 173.89L222.598 176.11ZM238.607 221.25C238.607 241.803 232.942 257.544 221.797 268.689L223.918 270.811C235.773 258.956 241.607 242.364 241.607 221.25H238.607ZM221.789 268.697C210.766 279.883 196.664 285.5 179.357 285.5V288.5C197.384 288.5 212.283 282.617 223.926 270.803L221.789 268.697ZM181.107 160.5C167.906 160.5 156.979 166.443 148.399 178.111L150.816 179.889C158.903 168.891 168.976 163.5 181.107 163.5V160.5ZM148.405 178.103C139.809 189.622 135.607 205.649 135.607 226H138.607C138.607 206.017 142.739 190.712 150.81 179.897L148.405 178.103ZM135.607 226C135.607 246.144 139.46 261.38 147.432 271.432L149.783 269.568C142.422 260.287 138.607 245.856 138.607 226H135.607ZM147.432 271.432C155.392 281.469 165.997 286.5 179.107 286.5V283.5C166.884 283.5 157.156 278.865 149.783 269.568L147.432 271.432ZM179.107 286.5C192.3 286.5 203.226 280.649 211.81 269.147L209.405 267.353C201.322 278.184 191.249 283.5 179.107 283.5V286.5ZM211.816 269.139C220.404 257.459 224.607 241.439 224.607 221.25H221.607C221.607 241.061 217.478 256.374 209.399 267.361L211.816 269.139ZM224.607 221.25C224.607 200.943 220.756 185.622 212.783 175.568L210.432 177.432C217.792 186.712 221.607 201.223 221.607 221.25H224.607ZM212.783 175.568C204.823 165.531 194.218 160.5 181.107 160.5V163.5C193.33 163.5 203.059 168.135 210.432 177.432L212.783 175.568ZM355.207 260.5L354.06 261.466L354.064 261.471L355.207 260.5ZM342.207 235.25L343.637 234.796L342.207 235.25ZM344.457 156.75L343.072 156.173L343.068 156.183L344.457 156.75ZM364.707 129L363.817 127.793L363.806 127.8L363.796 127.808L364.707 129ZM443.957 112.5L443.685 113.975L443.704 113.979L443.723 113.982L443.957 112.5ZM458.207 115.75L458.751 114.352L458.738 114.347L458.726 114.342L458.207 115.75ZM462.707 117.5L464.144 117.931L464.542 116.604L463.251 116.102L462.707 117.5ZM461.957 120L461.403 121.394L462.924 121.998L463.394 120.431L461.957 120ZM380.207 130.5L381.237 131.591L381.245 131.583L381.252 131.576L380.207 130.5ZM361.207 168L362.668 168.339L362.67 168.332L362.671 168.325L361.207 168ZM363.707 239.75L362.284 240.224L362.286 240.231L363.707 239.75ZM376.707 265L375.58 265.99L375.589 266L375.597 266.009L376.707 265ZM394.707 278.25L394.062 279.604L394.075 279.611L394.089 279.617L394.707 278.25ZM411.457 283.75L411.278 285.239L411.457 283.75ZM446.707 282.75L446.938 284.232L446.707 282.75ZM463.707 279.5L464.086 280.951L464.115 280.944L464.144 280.935L463.707 279.5ZM469.457 277.75L470.894 277.319L470.461 275.876L469.02 276.315L469.457 277.75ZM470.207 280.25L470.709 281.663L472.054 281.186L471.644 279.819L470.207 280.25ZM424.457 285.5C393.57 285.5 370.976 276.754 356.35 259.529L354.064 261.471C369.438 279.579 393.011 288.5 424.457 288.5V285.5ZM356.354 259.534C351.182 253.392 346.929 245.167 343.637 234.796L340.777 235.704C344.152 246.333 348.565 254.941 354.06 261.466L356.354 259.534ZM343.637 234.796C340.363 224.485 338.707 211.898 338.707 197H335.707C335.707 212.102 337.384 225.015 340.777 235.704L343.637 234.796ZM338.707 197C338.707 182.161 341.097 168.942 345.846 157.317L343.068 156.183C338.15 168.225 335.707 181.839 335.707 197H338.707ZM345.842 157.327C350.762 145.518 357.368 136.501 365.618 130.192L363.796 127.808C355.046 134.499 348.152 143.982 343.072 156.173L345.842 157.327ZM365.597 130.207C381.805 118.256 401.398 112.25 424.457 112.25V109.25C400.849 109.25 380.61 115.41 363.817 127.793L365.597 130.207ZM424.457 112.25C431.036 112.25 437.445 112.826 443.685 113.975L444.229 111.025C437.803 109.841 431.212 109.25 424.457 109.25V112.25ZM443.723 113.982C450.029 114.977 454.663 116.043 457.688 117.158L458.726 114.342C455.418 113.124 450.551 112.023 444.191 111.018L443.723 113.982ZM457.663 117.148L462.163 118.898L463.251 116.102L458.751 114.352L457.663 117.148ZM461.27 117.069L460.52 119.569L463.394 120.431L464.144 117.931L461.27 117.069ZM462.511 118.606C450.981 114.028 438.29 111.75 424.457 111.75V114.75C437.957 114.75 450.266 116.972 461.403 121.394L462.511 118.606ZM424.457 111.75C406.43 111.75 391.296 117.632 379.162 129.424L381.252 131.576C392.785 120.368 407.15 114.75 424.457 114.75V111.75ZM379.177 129.409C369.893 138.178 363.451 150.986 359.743 167.675L362.671 168.325C366.296 152.014 372.521 139.822 381.237 131.591L379.177 129.409ZM359.746 167.661C357.545 177.14 356.457 188.678 356.457 202.25H359.457C359.457 188.822 360.535 177.526 362.668 168.339L359.746 167.661ZM356.457 202.25C356.457 215.893 358.394 228.555 362.284 240.224L365.13 239.276C361.353 227.945 359.457 215.607 359.457 202.25H356.457ZM362.286 240.231C366.148 251.647 370.559 260.277 375.58 265.99L377.834 264.01C373.188 258.723 368.933 250.519 365.128 239.269L362.286 240.231ZM375.597 266.009C380.734 271.659 386.894 276.191 394.062 279.604L395.352 276.896C388.52 273.642 382.68 269.341 377.817 263.991L375.597 266.009ZM394.089 279.617C401.133 282.803 406.882 284.712 411.278 285.239L411.636 282.261C407.698 281.788 402.281 280.03 395.325 276.883L394.089 279.617ZM411.278 285.239C415.522 285.749 420.585 286 426.457 286V283C420.662 283 415.725 282.751 411.636 282.261L411.278 285.239ZM426.457 286C432.551 286 439.38 285.408 446.938 284.232L446.476 281.268C439.034 282.426 432.363 283 426.457 283V286ZM446.938 284.232C454.451 283.063 460.178 281.971 464.086 280.951L463.328 278.049C459.57 279.029 453.963 280.103 446.476 281.268L446.938 284.232ZM464.144 280.935L469.894 279.185L469.02 276.315L463.27 278.065L464.144 280.935ZM468.02 278.181L468.77 280.681L471.644 279.819L470.894 277.319L468.02 278.181ZM469.705 278.837C457.242 283.264 442.172 285.5 424.457 285.5V288.5C442.409 288.5 457.838 286.236 470.709 281.663L469.705 278.837ZM569.004 279.5L570.085 278.46L570.063 278.438L570.041 278.416L569.004 279.5ZM563.254 264.75H564.754L561.94 264.027L563.254 264.75ZM488.254 258.5L489.737 258.279L489.736 258.266L489.733 258.253L488.254 258.5ZM494.504 237.25L493.472 236.161L494.504 237.25ZM536.254 226.25L536.347 227.747L536.37 227.746L536.394 227.743L536.254 226.25ZM563.254 226L563.118 227.494L564.754 227.643V226H563.254ZM563.254 184.5H564.754V183.573L563.925 183.158L563.254 184.5ZM563.254 182.25L564.709 182.614L564.714 182.595L564.718 182.575L563.254 182.25ZM562.254 176.75L560.841 177.255L560.864 177.318L560.892 177.379L562.254 176.75ZM558.754 170L557.521 170.854L558.754 170ZM550.754 164.5L550.156 165.876L550.181 165.887L550.207 165.897L550.754 164.5ZM514.004 165.5L514.389 166.95L514.398 166.947L514.408 166.944L514.004 165.5ZM496.004 172L494.702 172.744L495.442 174.04L496.742 173.306L496.004 172ZM495.004 170.25L494.376 168.888L492.889 169.573L493.702 170.994L495.004 170.25ZM574.254 169.25L573.134 170.248L573.137 170.251L574.254 169.25ZM583.504 279.5L582.268 280.35L582.299 280.395L582.333 280.437L583.504 279.5ZM589.504 283.5L589.772 282.024L589.701 282.011L589.628 282.005L589.504 283.5ZM592.254 284L591.986 285.476L592.119 285.5H592.254V284ZM600.004 284H601.504V282.5H600.004V284ZM600.004 286V287.5H601.504V286H600.004ZM551.754 276L552.73 277.139L552.732 277.137L551.754 276ZM563.254 258.25L564.748 258.382L564.754 258.316V258.25H563.254ZM563.254 228H564.754V226.607L563.365 226.504L563.254 228ZM536.004 228.25L535.838 226.759L535.828 226.76L536.004 228.25ZM505.754 258.5L507.249 258.373L507.248 258.362L507.246 258.351L505.754 258.5ZM592.254 284.5C581.004 284.5 573.804 282.328 570.085 278.46L567.923 280.54C572.537 285.339 580.837 287.5 592.254 287.5V284.5ZM570.041 278.416C566.247 274.787 564.754 272.003 564.754 270H561.754C561.754 273.33 564.094 276.879 567.967 280.584L570.041 278.416ZM564.754 270V264.75H561.754V270H564.754ZM561.94 264.027C557.973 271.231 552.847 276.578 546.577 280.133C540.301 283.69 532.796 285.5 524.004 285.5V288.5C533.212 288.5 541.248 286.602 548.056 282.742C554.869 278.88 560.368 273.102 564.568 265.473L561.94 264.027ZM524.004 285.5C513.717 285.5 505.859 283.173 500.251 278.702C494.661 274.246 491.113 267.505 489.737 258.279L486.77 258.721C488.228 268.495 492.055 276.004 498.381 281.048C504.69 286.077 513.291 288.5 524.004 288.5V285.5ZM489.733 258.253C489.414 256.334 489.254 254.416 489.254 252.5H486.254C486.254 254.584 486.428 256.666 486.774 258.747L489.733 258.253ZM489.254 252.5C489.254 250.486 489.564 248.284 490.203 245.886L487.305 245.114C486.611 247.716 486.254 250.18 486.254 252.5H489.254ZM490.203 245.886C490.765 243.781 492.448 241.264 495.536 238.339L493.472 236.161C490.227 239.236 488.076 242.219 487.305 245.114L490.203 245.886ZM495.536 238.339C498.437 235.59 503.218 233.257 510.074 231.451C516.903 229.651 525.651 228.41 536.347 227.747L536.161 224.753C525.356 225.423 516.396 226.682 509.309 228.549C502.248 230.41 496.904 232.91 493.472 236.161L495.536 238.339ZM536.394 227.743C541.689 227.247 546.558 227 551.004 227V224C546.449 224 541.485 224.253 536.114 224.757L536.394 227.743ZM551.004 227C555.468 227 559.505 227.165 563.118 227.494L563.39 224.506C559.669 224.168 555.54 224 551.004 224V227ZM564.754 226V184.5H561.754V226H564.754ZM563.925 183.158C564.28 183.336 564.428 183.622 564.476 183.753C564.517 183.866 564.504 183.909 564.504 183.812C564.504 183.622 564.552 183.243 564.709 182.614L561.799 181.886C561.623 182.591 561.504 183.253 561.504 183.812C561.504 184.091 561.532 184.436 561.657 184.778C561.788 185.139 562.061 185.581 562.583 185.842L563.925 183.158ZM564.718 182.575C565.153 180.621 564.682 178.431 563.616 176.121L560.892 177.379C561.826 179.402 562.022 180.879 561.79 181.925L564.718 182.575ZM563.667 176.245C562.786 173.781 561.557 171.414 559.987 169.146L557.521 170.854C558.951 172.919 560.055 175.053 560.841 177.255L563.667 176.245ZM559.987 169.146C558.247 166.632 555.267 164.655 551.3 163.103L550.207 165.897C553.907 167.345 556.261 169.035 557.521 170.854L559.987 169.146ZM551.352 163.124C547.262 161.346 542.037 160.5 535.754 160.5V163.5C541.804 163.5 546.579 164.32 550.156 165.876L551.352 163.124ZM535.754 160.5C529.408 160.5 522.016 161.699 513.599 164.056L514.408 166.944C522.659 164.634 529.767 163.5 535.754 163.5V160.5ZM513.619 164.05C505.42 166.225 499.27 168.431 495.266 170.694L496.742 173.306C500.404 171.236 506.254 169.108 514.389 166.95L513.619 164.05ZM497.306 171.256L496.306 169.506L493.702 170.994L494.702 172.744L497.306 171.256ZM495.632 171.612C510.281 164.864 525.151 161.5 540.254 161.5V158.5C524.69 158.5 509.393 161.97 494.376 168.888L495.632 171.612ZM540.254 161.5C548.76 161.5 555.741 162.265 561.235 163.76C566.734 165.256 570.643 167.455 573.134 170.248L575.373 168.252C572.365 164.878 567.857 162.452 562.023 160.865C556.183 159.276 548.915 158.5 540.254 158.5V161.5ZM573.137 170.251C577.28 174.872 579.254 179.613 579.254 184.5H582.254C582.254 178.721 579.895 173.295 575.371 168.249L573.137 170.251ZM579.254 184.5V268.25H582.254V184.5H579.254ZM579.254 268.25C579.254 273.246 580.197 277.338 582.268 280.35L584.74 278.65C583.144 276.329 582.254 272.921 582.254 268.25H579.254ZM582.333 280.437C584.441 283.073 586.78 284.778 589.379 284.995L589.628 282.005C588.228 281.888 586.567 280.927 584.675 278.563L582.333 280.437ZM589.236 284.976L591.986 285.476L592.522 282.524L589.772 282.024L589.236 284.976ZM592.254 285.5H600.004V282.5H592.254V285.5ZM598.504 284V286H601.504V284H598.504ZM600.004 284.5H592.254V287.5H600.004V284.5ZM528.004 286.5C537.212 286.5 545.471 283.361 552.73 277.139L550.778 274.861C544.037 280.639 536.462 283.5 528.004 283.5V286.5ZM552.732 277.137C560.01 270.875 564.197 264.627 564.748 258.382L561.76 258.118C561.311 263.206 557.831 268.792 550.776 274.863L552.732 277.137ZM564.754 258.25V228H561.754V258.25H564.754ZM563.365 226.504C558.827 226.168 554.206 226 549.504 226V229C554.135 229 558.681 229.165 563.143 229.496L563.365 226.504ZM549.504 226C544.948 226 540.393 226.253 535.838 226.759L536.17 229.741C540.615 229.247 545.06 229 549.504 229V226ZM535.828 226.76C529.432 227.518 524.09 228.618 519.829 230.081C515.585 231.539 512.303 233.395 510.15 235.734L512.358 237.766C514.038 235.939 516.798 234.294 520.804 232.919C524.793 231.548 529.909 230.482 536.18 229.74L535.828 226.76ZM510.15 235.734C505.994 240.252 504.004 246.405 504.004 254H507.004C507.004 246.928 508.847 241.581 512.358 237.766L510.15 235.734ZM504.004 254C504.004 255.394 504.091 256.945 504.261 258.649L507.246 258.351C507.084 256.722 507.004 255.273 507.004 254H504.004ZM504.259 258.627C505.022 267.614 507.305 274.59 511.293 279.34C515.332 284.151 520.971 286.5 528.004 286.5V283.5C521.703 283.5 516.967 281.433 513.59 277.41C510.161 273.327 507.986 267.053 507.249 258.373L504.259 258.627Z" fill="white" mask="url(#path-3-outside-2_7_29)"/>
<rect x="736.218" width="22.1956" height="295.941" rx="11.0978" transform="rotate(20 736.218 0)" fill="white"/>
<rect x="853.259" y="285.583" width="22.1956" height="88.7824" rx="11.0978" transform="rotate(-90 853.259 285.583)" fill="white"/>
<rect x="831.801" y="141.312" width="14.7971" height="142.052" rx="7.39853" fill="white"/>
<rect x="802.946" y="184.963" width="14.7971" height="63.6274" rx="7.39853" transform="rotate(-30 802.946 184.963)" fill="white"/>
<rect width="14.7971" height="63.6274" rx="7.39853" transform="matrix(-0.866025 -0.5 -0.5 0.866025 874.95 159.808)" fill="white"/>
<rect x="728.963" y="7.59152" width="22.1956" height="156.308" rx="11.0978" transform="rotate(-20 728.963 7.59152)" fill="white"/>
<rect x="830.181" width="22.1956" height="295.941" rx="11.0978" transform="rotate(20 830.181 0)" fill="white"/>
<rect x="822.925" y="7.59152" width="22.1956" height="295.941" rx="11.0978" transform="rotate(-20 822.925 7.59152)" fill="white"/>
</svg>
